<svg width="20" height="20" viewBox="0 0 20 20" fill="none" xmlns="http://www.w3.org/2000/svg">
<path fill-rule="evenodd" clip-rule="evenodd" d="M4.47495 4.475C3.95861 4.98447 3.54815 5.59104 3.26719 6.25979C2.98624 6.92855 2.84035 7.64627 2.83792 8.37163C2.83549 9.097 2.97657 9.81569 3.25303 10.4863C3.5295 11.1569 3.93589 11.7662 4.4488 12.2791C4.96172 12.7921 5.57103 13.1985 6.24165 13.4749C6.91227 13.7514 7.63095 13.8925 8.35632 13.89C9.08168 13.8876 9.79941 13.7417 10.4682 13.4608C11.1369 13.1798 11.7435 12.7693 12.2529 12.253C13.273 11.2192 13.8427 9.82393 13.8379 8.37163C13.833 6.91934 13.2539 5.52791 12.227 4.50097C11.2 3.47404 9.80862 2.89496 8.35632 2.89009C6.90402 2.88523 5.50874 3.45497 4.47495 4.475V4.475ZM10.8389 10.839C10.1825 11.4954 9.29225 11.8642 8.36395 11.8642C7.43564 11.8642 6.54536 11.4954 5.88895 10.839C5.23254 10.1826 4.86377 9.29231 4.86377 8.364C4.86377 7.4357 5.23254 6.54541 5.88895 5.889C6.54536 5.23259 7.43564 4.86382 8.36395 4.86382C9.29225 4.86382 10.1825 5.23259 10.8389 5.889C11.4954 6.54541 11.8641 7.4357 11.8641 8.364C11.8641 9.29231 11.4954 10.1826 10.8389 10.839V10.839Z" fill="white"/>
<path d="M11.1919 13.314C11.0526 13.1747 10.9421 13.0093 10.8667 12.8272C10.7913 12.6452 10.7524 12.45 10.7524 12.253C10.7524 12.056 10.7913 11.8608 10.8667 11.6788C10.9421 11.4967 11.0526 11.3313 11.1919 11.192C11.3313 11.0527 11.4967 10.9421 11.6787 10.8667C11.8608 10.7913 12.0559 10.7525 12.2529 10.7525C12.45 10.7525 12.6451 10.7913 12.8271 10.8667C13.0092 10.9421 13.1746 11.0527 13.3139 11.192L16.8489 14.728C16.9922 14.8664 17.1065 15.0319 17.1851 15.2149C17.2637 15.3979 17.3051 15.5947 17.3068 15.7939C17.3085 15.9931 17.2706 16.1906 17.1952 16.3749C17.1197 16.5593 17.0084 16.7268 16.8675 16.8676C16.7267 17.0084 16.5592 17.1198 16.3749 17.1952C16.1905 17.2707 15.993 17.3086 15.7938 17.3069C15.5947 17.3051 15.3978 17.2638 15.2148 17.1852C15.0318 17.1065 14.8663 16.9923 14.7279 16.849L11.1919 13.314Z" fill="white"/>
</svg>
